/* XPM */
static char *dGVzdA__[] = {
/* columns rows colors chars-per-pixel */
"48 48 212 2 ",
"   c #4B1A1E",
".  c #46141A",
"X  c #661D23",
"o  c #52353F",
"O  c #6A2623",
"+  c #742126",
"@  c #7A252B",
"#  c #782928",
"$  c #66392C",
"%  c #743B32",
"&  c #743C3C",
"*  c #7D3D3A",
"=  c #7C3132",
"-  c #762F38",
";  c #563841",
":  c #583942",
">  c #6D494F",
",  c #68464D",
"<  c #704A4F",
"1  c #754346",
"2  c #83262B",
"3  c #8A262B",
"4  c #8F282D",
"5  c #94292E",
"6  c #9B2A2F",
"7  c #862C31",
"8  c #9B2C31",
"9  c #823F3B",
"0  c #8B383B",
"q  c #983737",
"w  c #A32E33",
"e  c #AC2F34",
"r  c #A33236",
"t  c #AC3135",
"y  c #A73B3C",
"u  c #AC3B3B",
"i  c #A73438",
"p  c #B33137",
"a  c #B53439",
"s  c #B5363A",
"d  c #C2363B",
"f  c #C9363C",
"g  c #CB393E",
"h  c #C43A3D",
"j  c #D1363D",
"k  c #D1393F",
"l  c #83413D",
"z  c #814E3A",
"x  c #96433E",
"c  c #933842",
"v  c #A93C46",
"b  c #BB3F46",
"n  c #C83D45",
"m  c #D23D41",
"M  c #874541",
"N  c #8A4643",
"B  c #854947",
"V  c #8D4C4A",
"C  c #864A49",
"Z  c #984844",
"A  c #914A44",
"S  c #91514E",
"D  c #975A4A",
"F  c #9E5652",
"G  c #965551",
"H  c #AD424E",
"J  c #A74444",
"K  c #BB414B",
"L  c #B74447",
"P  c #A5574B",
"I  c #B35B4B",
"U  c #B5554A",
"Y  c #AE4450",
"T  c #B24652",
"R  c #A15A55",
"E  c #A55F59",
"W  c #B85756",
"Q  c #9B6152",
"!  c #A1614B",
"~  c #A66555",
"^  c #AA6354",
"/  c #AA645F",
"(  c #AB6959",
")  c #AA6857",
"_  c #B36D59",
"`  c #BA6955",
"'  c #B4745B",
"]  c #BB715C",
"[  c #AE6962",
"{  c #B76B64",
"}  c #A77365",
"|  c #BD736B",
" . c #BA7764",
".. c #C14444",
"X. c #C54B49",
"o. c #CB4D4B",
"O. c #C54349",
"+. c #D54446",
"@. c #D64C4B",
"#. c #DA4D4B",
"$. c #D94749",
"%. c #D6514E",
"&. c #DC514F",
"*. c #D55350",
"=. c #DB5652",
"-. c #DE5955",
";. c #D25854",
":. c #C75F56",
">. c #E25653",
",. c #E45B57",
"<. c #E65D59",
"1. c #E85F5A",
"2. c #D46553",
"3. c #DF665D",
"4. c #D5775D",
"5. c #E5645C",
"6. c #EA645E",
"7. c #C55C61",
"8. c #C86963",
"9. c #DF6D65",
"0. c #C57A60",
"q. c #C1776C",
"w. c #C57C6A",
"e. c #C97B72",
"r. c #D4756B",
"t. c #E76D64",
"y. c #F16D64",
"u. c #EC7164",
"i. c #E57265",
"p. c #F27166",
"a. c #F5766A",
"s. c #F57A6D",
"d. c #F97B6F",
"f. c #EB7C77",
"g. c #FA7E71",
"h. c #BB8177",
"j. c #CA896C",
"k. c #D5866C",
"l. c #D7926B",
"z. c #CA8374",
"x. c #C88377",
"c. c #D28978",
"v. c #CA9576",
"b. c #D69272",
"n. c #DA9773",
"m. c #DB9A74",
"M. c #DD9C7A",
"N. c #ED8269",
"B. c #FD8374",
"V. c #FE8A77",
"C. c #FF8B79",
"Z. c #F78471",
"A. c #E09D7E",
"S. c #FE977B",
"D. c #F99778",
"F. c #DBA37C",
"G. c #E5A77C",
"H. c #E5A87E",
"J. c #E8AA7F",
"K. c #CF8D81",
"L. c #DB8F83",
"P. c #D49286",
"I. c #DC9184",
"U. c #DA9C81",
"Y. c #CB9486",
"T. c #DCA589",
"R. c #D9B58E",
"E. c #EAAD83",
"W. c #E9AB8A",
"Q. c #E5A484",
"!. c #FCAC81",
"~. c #FEA787",
"^. c #EEB385",
"/. c #E4B38B",
"(. c #EDB58B",
"). c #FCBA87",
"_. c #F0B68B",
"`. c #F4B98A",
"'. c #ECA496",
"]. c #ECA999",
"[. c #EBA595",
"{. c #F3AB9B",
"}. c #E5B796",
"|. c #F5BF90",
" X c #FABB9E",
".X c #F4BB9B",
"XX c #F7AFA0",
"oX c #F8AFA1",
"OX c #EAB5A1",
"+X c #F8B0A1",
"@X c #F8BAA7",
"#X c #FBCB9B",
"$X c #F7C596",
"%X c #ECC59D",
"&X c #EECCA0",
"*X c #FBC2AD",
"=X c #F8C9A6",
"-X c #FCD1AB",
";X c #F7D2A3",
":X c #FFC6B2",
">X c #FFCBB2",
",X c #FFCDBA",
"<X c #FED3B4",
"1X c #E8C8B6",
"2X c #FDE3B2",
"3X c #FAD7C7",
"4X c #F3DFD2",
"5X c #FFE1CD",
"6X c #FFE5C6",
"7X c #FFE2D0",
"8X c None",
"9X c black",
/* pixels */
"8X8X8X8X8X8X8X8X8X8X8X8X8X8X8X8X8X8X8X8X8X8X8X8X8X8X8X8X8X8X8X8X8X8X8X8X8X8X8X8X8X8X8X8X8X8X8X8X",
"8X8X8X8X8X8X8X8X8X8X8X8X8X8X8X8X8X8X8X8X8X8X8X8X8X8X8X8X8X8X8X8X8X8X8X8X8X8X8X8X8X8X8X8X8X8X8X8X",
"8X8X8X8X8X8X8X8X8X8X8X8X8X8X8X8X8X8X8X8X8X8X8X8X8X8X8X8X8X8X8X8Xf.f.8X8X8X8X8X8X8X8X8X8X8X8X8X8X",
"8X8X8X8X8X8X8X8X8X8X8X8X8X8X8X8X8X8X8X8X8X8X8X8X8X8X8X8X8X8X8X1.6.u.L 8X8X8X8X8X8X8X8X8X8X8X8X8X",
"8X8X8X8X8X8X8X8X8X8X8X8X9X9X9X9X8X8X8X8X8X8X8X8X8X8X8X8X8X8X1.B.B.s.r w 8X8X8X8X8X8X8X8X8X8X8X8X",
"8X8X8X8X8X8X8X8X8X8X8X8Xk k 9X9X8X8X8X8X8X8X8X8X8X8X8X8X8X1.d.C.V.-.w w w w 8X8X8X8X8X8X8X8X8X8X",
"8X8X8X8X8X8X8X8X8X8X8X8Xp.Z.m 9X8X8X8X8X8X8X8X8X8X8X8X8X1.d.B.l.U w w w 8X8X8X8X8X8X8X8X8X8X8X8X",
"8X8X8X8X8X8X8X8X8X8X8X8Xa.B.m k 8X8X8X8X8X8X8X8X8X8X8X8X1.g.u w w w 8X8X8X8X8X8X8X8X8X8X8X8X8X8X",
"8X8X8X8X8X8X8X8X8X8X8Xk p.B.6.j k 8X8X8X8X8X8X8X8X8X8X1.5.i w w w 8X8X8X8X8X8X8X8X8X8X8X8X8X8X8X",
"8X8X8X8X8X8X8X8X8X8X8Xw p s.s.5.m 8X8X8X8X8X8X8X8X8X8X,.w w w w w 8X8X8X8X8X8X8X8X8X8X8X8X8X8X8X",
"8X8X8X8X8X8X8X8X8Xw w w w a 2.t.1.m 8X8X8X8X8X8X8X8Xw %.w w w 8X8X8X8X8X8X8X8X8X8X8X8X8X8X8X8X8X",
"8X8X8X8X8X8X8X8Xw w w w w w w +.>.1.m 8X8X8X8X8X8X8Xo.r 2 2 8X8X8X8X8X8X8X8X8X8X8X8X8X8X8X8X8X8X",
"8X8X8X8X8X8X8X8X8Xw r r w w w w t >.=.r 8X . .^ 8X8Xo.5 + 8X8X8Xq X.X.4 8X8X8X8X8X8X8X8X8X8X8X8X",
"8X8X8X8X8X8X8X8X8X8X9X9Xw w w r w p >.r P I.|.#Xv.L b + + 8XI i.B.!.y.$.5 8X8X8X8X8X8X8X8X8X8X8X",
"8X8X8X8X8X8X8X8X8X8X8XL y q 4 5 8 w p K r E.|.$X$X@.8 @ v 6.g.B.S.).).N.,.*.J 8X8X8X8X8X8X8X8X8X",
"8X8X8X8X8X8X8X8X8X#.Z.V.V.a.,.-.-.2 8 e f y ^.^.I @ w @ -.1.1.a.Z.a.,.,.%.g #.%.8X8X8X8X8X8X8X8X",
"8X8X8X8X8X8X8X8XD.).S.).B.y.+.h t s p 2 w s J ` d + 5 @.p >.1.y 3 2 8 6 8 6 8 s.8X8X8X8X8X8X8X8X",
"8X8X8X8X8X8X8Xs.D.,.5.~.d.y.<.#.<.*.a 4 + 2 6 ..5.8 a e &.J = @ q ..w p p w 8 3.8X8X8X8X8X8X8X8X",
"8X8X8X8X8X8X5 j f w Z.!.!.l.x.h.! s o.$.p 3 + h p 3 5 w w 8 8 O.#.m ,.=.O...p %.x 8X8X8X8X8X8X8X",
"8X8X8X8X8X8X@ *.a.@.5.S.u OX<X>X>XT.' 2 8 8 8 + 7 @ 7 @ 5 d f m +.&.#.a.d.t.;.} ;X/.) 8X8X8X8X8X",
"8X8X8X8X8X8X8XG.j.Z $.p.4 e Q D D h 8 r d 4 @ T c v T T h y ~ 0 q Z Z Z 0 &X3X5X7X#X~ 8X8X8X8X8X",
"8X8X8X8X8X8X8X1X4X=Xy ,.3 w +.$.s p =.s U.i.8.7.Y n n n k k v 8.oXoX+X+XoX#X3X<XT.z._ 8X8X8X8X8X",
"8X8X8X8X8X8X8XG.*X4X3Xo.6 w k k =.y.8.@XC.i.e.G.Q.k.4.g K n T T v e.L.M.XX-XF.z.z.j.~ 8X8X8X8X8X",
"8X8X8X8X8X8X8XF.:X:X:X| X.5 t 5.t.:.~.B.f.b.;X2X2X,X>X[.2.2.b H v w w U %X| c.0.0.0.~ 8X8X8X8X8X",
"8X8X8X8X8X8X8Xm.:X:X_.' @.=.%.t t.g.g.r.m.;X2X2X2X,X:X:X*X*XQ.W r r w w w 0.0.0.0.0.G 9X9X9X9X9X",
"8X8X8X8X8X8X8Xv..X:X_.^.H.H.5.$.m #.@XM.E.;X2X2X2X6X:X:X:X:X*X*X].i r K 3 0.0.0.' $ 9X9X9X9X9X9X",
"8X8X8X8X8X8X8X8XY.Y.(.^.^.^.t.B.g j '.:X@XW./.2X2X2X3X:X:X:X:X%Xv.] b v 4 ) _ z % l 9X9X9X9X9X9X",
"8X8X8X8X8X8X8X8X X|.v.j.I.I.6.B.j j L.L.].W.W.b./.}.6X*X>X-XR._ ^ ^ H 0 @ % % 9 A 9X9X9X9X9X9X9X",
"8X8X8X8X8X8X8X8X@X-X-X#X} x.i.p.k j I.I.L.L.e.L.W.E.j.&X}._ ] F F ^ 6 O % 9 M M C 8X8X8X9X9X9X9X",
"8X8X8X8X8X8X8X8X8X5X5X#X^.n.! % h j I.I.L.L.c.| q.q.Q.:XQ R F F R D O % 9 l S S 1 8X8X8X9X9X9X9X",
"8X8X8X8X8X8X8X8X8X5X3X-X|.G.n.q.+ $ { L.L.L.z.| | | | ].R F F F $     M 9 9 V S 8X8X8X8X9X9X9X9X",
"8X8X8X8X8X8X8X8X8X@X7X-X$XG.l.q.w 4 c [ { x.e.| | | G ].R F F & . .   N * 9 S S 8X8X8X8X9X9X9X9X",
"8X8X8X8X8X8X8X8X8X+X5X-X$X^.m.| w w c | |  . ./ / / V Q.R B - C X +   M 9 N C < 9X9X9X9X9X9X9X9X",
"8X8X8X8X8X8X8X8X8X].(.<X-X^.m.q.>.p A | w.m.n.n.m.( B x.V * * S + +   M 9 S < < 9X9X9X9X9X9X9X9X",
"8X8X8X8X8X8X8X8X8X8X^.7X5X^.m.q.>.j I q.b.n.n.n.^.F.].K.9 9 9 S + +   N 9 < : : 9X9X9X9X9X9X9X9X",
"8X8X8X8X8X8X8X8X8X8XM.7X7X^.b.| >.m I G.M.n.n.n.n.n.b.P.9 l 9 S + +   M 9 > ; 8X9X9X9X9X9X9X9X9X",
"8X8X8X8X8X8X8X8X8X8X| }.OX^.b.| *.m I ^.M.n.n.n.n.n.n.P.l 9 9 N + + * l 1 8X8X8X9X9X9X9X9X9X9X9X",
"8X8X8X8X8X8X8X8X8X8Xq.m.n.n.b.| *.j I ^.m.n.n.n.n.n.+Xl 9 9 9 9 + + V 9 8X8X8X8X9X9X9X9X9X9X9X9X",
"8X8X8X8X8X8X8X8X8X8X8X8X8Xj.k.| d k D m.m.n.n.n.n.n.{.9 l 9 9 9 + + V 8X8X8X8X8X9X9X9X9X9X9X9X9X",
"8X8X8X8X8X8X8X8X8X8X8X8X8X8XG { d k A w.l.n.m.m.n.n.+X* 9 9 9 9 @ 8X8X8X8X8X8X8X9X9X9X9X9X9X9X9X",
"8X8X8X8X8X8X8X8X8X8X8X8X8X8X8X= w t N | | n.n.b.m.b.XX, 9 9 9 9 9X9X9X9X9X9X9X9X9X9X9X9X9X9X9X9X",
"8X8X8X8X8X8X8X8X8X8X8X8X8X8X8X8X2 8 0 [ | m.n.n.m.].x.; 1 > 8X8X9X9X9X9X9X9X9X9X9X9X9X9X9X9X9X9X",
"8X8X8X8X8X8X8X8X8X8X8X8X8X8X8X8X8X8X+ 8XS [ | | | '.h.; > 8X8X8X9X9X9X9X9X9X9X9X9X9X9X9X9X9X9X9X",
"8X8X8X8X8X8X8X8X8X8X8X8X8X8X8X8X8X8X8X8X8X8X8X| | '.8X8X8X8X8X8X9X9X9X9X9X9X9X9X9X9X9X9X9X9X9X9X",
"8X8X8X8X8X8X8X8X8X8X8X8X8X8X8X8X8X8X8X8X8X8X8X8X8X8X8X8X8X8X8X8X9X9X9X9X9X9X9X9X9X9X9X9X9X9X9X9X",
"8X8X8X8X8X8X8X8X8X8X8X8X8X8X8X8X8X8X8X8X8X8X8X8X8X8X8X8X8X8X8X8X9X9X9X9X9X9X9X9X9X9X9X9X9X9X9X9X",
"8X8X8X8X8X8X8X8X8X8X8X8X8X8X8X8X8X8X8X8X8X8X8X8X8X8X8X8X8X8X8X8X9X9X9X9X9X9X9X9X9X9X9X9X9X9X9X9X",
"8X8X8X8X8X8X8X8X8X8X8X8X8X8X8X8X8X8X8X8X8X8X8X8X8X8X8X8X8X8X8X8X9X9X9X9X9X9X9X9X9X9X9X9X9X9X9X9X"
};
