/* XPM */
static char *_912764c03294e10e066a5b9b5f5c355fCCK8FxZFFBmzOmE[] = {
/* columns rows colors chars-per-pixel */
"48 48 175 2 ",
"   c None",
".  c #B9A39B",
"X  c #BCA69E",
"o  c #BCA79F",
"O  c #BDA79F",
"+  c #BEA8A0",
"@  c #BEA9A1",
"#  c #BFAAA2",
"$  c #BFABA3",
"%  c #C0ACA4",
"&  c #C1ACA4",
"*  c #C1ADA5",
"=  c #C2ADA5",
"-  c #C2AEA6",
";  c #C3AFA7",
":  c #C5B1A9",
">  c #C5B2AA",
",  c #C6B2AA",
"<  c #C7B3AB",
"1  c #C7B4AC",
"2  c #C8B4AC",
"3  c #C8B5AD",
"4  c #C9B5AD",
"5  c #C9B6AE",
"6  c #CAB7AF",
"7  c #CBB8B0",
"8  c #CBB8B1",
"9  c #CBB9B1",
"0  c #CCB9B1",
"q  c #CCB9B2",
"w  c #CCBAB2",
"e  c #CDBAB2",
"r  c #CDBBB3",
"t  c #CEBBB3",
"y  c #CEBCB4",
"u  c #CFBCB4",
"i  c #CFBDB5",
"p  c #D0BDB5",
"a  c #D0BEB6",
"s  c #D1BEB6",
"d  c #D1BFB7",
"f  c #D2BFB7",
"g  c #D2C0B8",
"h  c #D3C1B9",
"j  c #D4C2BA",
"k  c #D4C3BB",
"l  c #D5C3BB",
"z  c #D5C4BC",
"x  c #D6C4BC",
"c  c #D6C5BD",
"v  c #D7C5BD",
"b  c #D7C5BE",
"n  c #D7C6BE",
"m  c #D8C6BE",
"M  c #D8C7BF",
"N  c #D9C7BF",
"B  c #D9C8C0",
"V  c #DAC8C0",
"C  c #DAC9C1",
"Z  c #DBCAC2",
"A  c #DCCBC3",
"S  c #DCCCC3",
"D  c #DCCCC4",
"F  c #DDCCC4",
"G  c #DDCDC5",
"H  c #DECDC5",
"J  c #DECDC6",
"K  c #DECEC6",
"L  c #DFCEC6",
"P  c #DFCFC7",
"I  c #DFD0C9",
"U  c #E0CFC7",
"Y  c #E0D0C8",
"T  c #E1D0C8",
"R  c #E1D1C9",
"E  c #E2D1C9",
"W  c #E2D2CA",
"Q  c #E3D2CA",
"!  c #E3D3CB",
"~  c #E4D3CB",
"^  c #E2D3CD",
"/  c #E3D4CC",
"(  c #E2D4CD",
")  c #E4D4CC",
"_  c #E4D5CD",
"`  c #E5D5CD",
"'  c #E5D6CE",
"]  c #E6D6CE",
"[  c #E6D7CF",
"{  c #E7D7CF",
"}  c #E7D8D0",
"|  c #E7D8D1",
" . c #E8D8D0",
".. c #E8D8D1",
"X. c #E8D9D1",
"o. c #E9D9D1",
"O. c #E9DAD2",
"+. c #E9DAD3",
"@. c #E9DBD3",
"#. c #EADAD2",
"$. c #EADAD3",
"%. c #EADBD3",
"&. c #EBDBD3",
"*. c #E9DCD5",
"=. c #EADCD4",
"-. c #EBDCD4",
";. c #EADCD5",
":. c #EADDD6",
">. c #ECDCD4",
",. c #ECDDD5",
"<. c #EDDDD5",
"1. c #ECDED6",
"2. c #EDDED6",
"3. c #EDDFD7",
"4. c #EEDFD7",
"5. c #EBDFD8",
"6. c #EEE0D8",
"7. c #EFE0D8",
"8. c #EEE0D9",
"9. c #EEE1D9",
"0. c #EFE1D9",
"q. c #ECE0DB",
"w. c #EEE1DA",
"e. c #EFE1DA",
"r. c #EFE2DB",
"t. c #F0E1D9",
"y. c #F0E2DA",
"u. c #F1E2DA",
"i. c #F0E2DB",
"p. c #F1E3DB",
"a. c #F1E3DC",
"s. c #F0E3DD",
"d. c #F0E4DD",
"f. c #F1E4DD",
"g. c #F2E4DC",
"h. c #F0E4DE",
"j. c #F0E4DF",
"k. c #F4E7DF",
"l. c #F5E7DF",
"z. c #EDE4E0",
"x. c #F1E7E1",
"c. c #F3E7E0",
"v. c #F2E6E1",
"b. c #F1E7E2",
"n. c #F2E7E2",
"m. c #F2E8E3",
"M. c #F6E8E0",
"N. c #F7EAE2",
"B. c #F3EAE5",
"V. c #F3EAE6",
"C. c #F5EAE4",
"Z. c #F6EBE5",
"A. c #F4EBE7",
"S. c #F7ECE5",
"D. c #F5ECE7",
"F. c #F9ECE4",
"G. c #FBEEE6",
"H. c #F4EDE9",
"J. c #F7EEE8",
"K. c #F5EEEA",
"L. c #F5EEEB",
"P. c #F7EEEA",
"I. c #F9EEE8",
"U. c #F6F0EC",
"Y. c #F7F1EE",
"T. c #FAF1EB",
"R. c #FCF0E8",
"E. c #F8F1EE",
"W. c seashell",
"Q. c #FCF6F3",
"!. c #FAF6F4",
"~. c #FAF7F5",
"^. c #FBF7F5",
"/. c #FDFAF8",
"(. c #FDFBFA",
/* pixels */
"                                                                                                ",
"                                                                                                ",
"                                                                                                ",
"                                                                                                ",
"                                                                                                ",
"                                                                                                ",
"                                                                                                ",
"                                                                                                ",
"                                                                                                ",
"                                  L L 4.    X.D n     A L     L X.A                             ",
"                            ! ;.U p.p.4.4.g A ^.L L X.X.] ! n ] { S X.;.7.                      ",
"                          T D L ] ] I.~ ] | x -.] U ] ^.( B e n A 4.!.I { ]                     ",
"              | (     X.L.v.X.g L 4.S.] n ] M 4.4.A L X.B p 6 y ! L r.] B -.L                   ",
"              u e   ] X.q.! L d B ] L n j A j L M e n X.g 6 M j B B B u B Z.r.X.                ",
"            A   4.r.E.! n w n D     j u     j     6 B ~         u d p L ^ 5.] A B e             ",
"          L U 4.] L X.] L n u B X.          {     p X.M             { ) ! L A ] ~ M n           ",
"        u p M ! 4.L M   L       A X.                ]             4.L n B n | ] ! ! T           ",
"      p n B p B B e j B                             !           X.L w         j L 4.! L L       ",
"    ;.4.p.4.L ! M       A                                                     p n X.L.;.| j     ",
"    L ] ] ! g n                                                                 ! -.v.S j j L   ",
"    p e e : # U ]                                                               S 4.X.! ] B.U   ",
"    1 B ;.A e ! L ]                                                             g 8.X.A ! U p   ",
"  p ! X.L.7.M                               ]                               ] U u m.p.] L 6 e   ",
"  L g n X.4.X.                                        w                 A A j e g { ;.] B %     ",
"  g j ] N.T e                               4.      M u                         q.4.P B j       ",
"  . : B ! D u j     A                     w ] B                                 ;.;.L.-.n e     ",
"    # 7 ] p.X.4.T j                         e                                   u ] 8.] ] B     ",
"      n p.] X.! p N                                                               ! ! A A       ",
"      d ] -.N.] M ] T                                                         7.] S u : 6       ",
"      e p | L U 4.~ B       L B                                           S ! ;.v.r.| u %       ",
"      : % B p ! 8.L.A e g j L                                           4.X.( ! 8.-.( n         ",
"        + j B B ~ p.{ X.8.N.4.  L L B g               n           4.p   4.m.B.L L l 4.6         ",
"          6 u n B ! ! ;.v.Z.{ T -.! j B       g       w U ;.L M X.4.X.p B ( 8.{ p ; g           ",
"            6 e g B B ! 4.X.! ! k.4.-.4.! ! N ;.S     ] X.p.4.! X.&.U X.;.A M A e 6             ",
"              % X p e B ! S ! 8.(.I.4.4.X.L 4.| p X.4.4.^.Q.8.4.f.L.L X.X.] : e                 ",
"                  O : 1 l 6 n f.N.4.] 4.Z.T.p.g B N.X.X.p.F.{ 4.;.] U A L g %                   ",
"                    . # % % e N ! ] L k.W./.X.! 8.G.X.] X.4.L ] U L ! 6 6 #                     ",
"                              < n p M 4.7.8.| ] 4.Z.U 6 e A B L M y e 6                         ",
"                              O : % p U M j B ! T ;.p : : e M p . :                             ",
"                                      # O     # g e #         % .                               ",
"                                                                                                ",
"                                                                                                ",
"                                                                                                ",
"                                                                                                ",
"                                                                                                ",
"                                                                                                ",
"                                                                                                ",
"                                                                                                "
};
