/* XPM */
static char *_eadc24186d441de9adb8404b0ffe6d4JsN8XohhH32uJJsT[] = {
/* columns rows colors chars-per-pixel */
"48 48 89 1 ",
"  c None",
". c #2F1F4C",
"X c #31214E",
"o c #352552",
"O c #382754",
"+ c #372853",
"@ c #3A2956",
"# c #3D2D5A",
"$ c #3F315A",
"% c #402F5D",
"& c #41315E",
"* c #453462",
"= c #483665",
"- c #473863",
"; c #493866",
": c #4C3A6A",
"> c #513F6F",
", c #52436E",
"< c #554472",
"1 c #584675",
"2 c #564972",
"3 c #594B76",
"4 c #5C4B7A",
"5 c #5E5179",
"6 c #614F7F",
"7 c #61537E",
"8 c #614F80",
"9 c #655483",
"0 c #685587",
"q c #665881",
"w c #695A86",
"e c #6C5B8B",
"r c #705E8F",
"t c #715F91",
"y c #6D6086",
"u c #71628F",
"i c #756494",
"p c #786797",
"a c #796B95",
"s c #786698",
"d c #7C6B9C",
"f c #7F709C",
"g c #7F6EA0",
"h c #82739F",
"j c #806FA1",
"k c #8272A3",
"l c #8678A3",
"z c #8979A7",
"x c #8777A8",
"c c #8877A8",
"v c #8C7CAB",
"b c #8F80AD",
"n c #9182AF",
"m c #9384B2",
"M c #9789B4",
"N c #9889B7",
"B c #9B8CBA",
"V c #9F90BD",
"C c #A091BE",
"Z c #A69BBF",
"A c #A495C2",
"S c #A799C5",
"D c #A899C6",
"F c #AB9DC9",
"G c #AFA1CD",
"H c #B1A2CE",
"J c #B6B0CD",
"K c #B5A6D2",
"L c #B6A8D3",
"P c #B9ACD7",
"I c #BCAED9",
"U c #BEB1DC",
"Y c #C1B4DE",
"T c #C5B9E3",
"R c #C9BEE6",
"E c #CABFE8",
"W c #CCC3E6",
"Q c #CCC2E9",
"! c #D5CFE1",
"~ c #D2CAED",
"^ c #D6D1ED",
"/ c #D6CFF0",
"( c #D7D0F1",
") c #DBD4F3",
"_ c #DED9F4",
"` c #E1DDF7",
"' c #E6E3FA",
"] c #E8E7FC",
"[ c #EDECFF",
/* pixels */
"                                                ",
"                                                ",
"                                                ",
"                          .                     ",
"                         ..          :          ",
"                        o#X.         :          ",
"                       .*&X....                 ",
"                        O*=X....       ::       ",
"                         .#.XO..        :       ",
"                   :    ....O#..        :       ",
"                       ...XX*#..                ",
"     xd     :          ..@;::*.....             ",
"    kNk     ::    .   ..O::*&O.....             ",
"   imBa9    :: ..o#    .#*o....       4dnd  i   ",
"   dhMk     :  ..o#X....#X.....        :   rez  ",
" ivvmnd     : ..*-.......o:#o..  .     *     9d ",
"    eBvi    & .%06=X.o-=:;::@... o     &@   ikb ",
"     kmfwfNnxx7*&&*%o#o.XO@#o##X.@    09qdgvvd4 ",
"      ibBze75779wXX*3#.X.X..+@o%$.*qii39eeqdd   ",
"       d   ....o55Xe--au9ae72yisuq752ikmmk      ",
"           X=o>4,&o@exvk3%,94elv,O3iie12<       ",
"           &:*0002%=:>>e1:1idw:-ie:*X<9#        ",
"            :o1834::>468e8eivd9090*Oo**..       ",
"            %:..@=>18ijjcdisjjd:*@.X#O...       ",
"            X*#o:>400skkcxjjj4:=;1O.....        ",
"           X@X%;:::00rjkdttgjjj44>:@OO..        ",
"         .#*X=:;>180sttmjjd0eig1:#o.%:#         ",
"         .*#o3800rijktgBvkjjtsi0:**OXX          ",
"         ..#4000>>0tsgcBAvmAvjgi4::*o..         ",
"          X#XO#=8sxAjjAHHKHBvvxvdpt>*...        ",
"         k*o&:4txjmKNAFHP~EKvjkmmd4:#@=*        ",
"       dxF9..>sjBmDKKKKL/]`UAkjvvd3oX*   x      ",
"        kiw..oodSKIKPQYU~QQQKkjvde4..&jvBk      ",
"        NF   :o4HIWPTQQQ~QQEIFBj0:*..pCBv       ",
"       kVmM9:*#OhK)QQQQQ_/EELLLvj9#. cGsBj      ",
"         px9:&..XB^Q_QQ'[/~RKLLFvs1. dpvj       ",
"        sdVKdd,.XuWW'']['QQ]QTLLL9,,lBAVki      ",
"            <ev3@h~~[[[[_EE_QWUDd>;:DDlk        ",
"             eGN0iJ^[')[[_~EUDHl*%-jlk          ",
"              xFiGSkMW~[[''QYDmq3epzj           ",
"              kv NDmidS^'UFMhikkAmsMmk          ",
"              k   S!SkiehvGxbVmHDB              ",
"                   vG     xm   xBMv             ",
"                                                ",
"                                                ",
"                                                ",
"                                                ",
"                                                "
};
