/* XPM */
static char *_09265ac65fb4644c839f98233c99171gdSEYXsNknou9Tw0[] = {
/* columns rows colors chars-per-pixel */
"48 48 208 2 ",
"   c None",
".  c #2A273B",
"X  c #2F2A3E",
"o  c #33263B",
"O  c #38273B",
"+  c #3A2A3E",
"@  c #382739",
"#  c #4A303D",
"$  c #6A2B34",
"%  c #7C2B34",
"&  c #712F36",
"*  c #74353B",
"=  c #6B242E",
"-  c #3D2D41",
";  c #352D43",
":  c #3E3449",
">  c #412F43",
",  c #433244",
"<  c #45364A",
"1  c #413A4F",
"2  c #4B384C",
"3  c #493447",
"4  c #573B47",
"5  c #433D52",
"6  c #4C3D51",
"7  c #533E52",
"8  c #464156",
"9  c #5A4559",
"0  c #5C5553",
"q  c #534B4D",
"w  c #6E414C",
"e  c #6A4958",
"r  c #7E4959",
"t  c #695355",
"y  c #69625D",
"u  c #594C61",
"i  c #524D64",
"p  c #614D61",
"a  c #6B4F60",
"s  c #6C5464",
"d  c #6C5669",
"f  c #6F5C6A",
"g  c #685963",
"h  c #725B6D",
"j  c #785B68",
"k  c #745D70",
"l  c #675C76",
"z  c #766D67",
"x  c #6D627D",
"c  c #7A6374",
"v  c #7E6679",
"b  c #802F37",
"n  c #8E353E",
"m  c #83373E",
"M  c #90363F",
"N  c #F70001",
"B  c #D92C29",
"V  c #FB3031",
"C  c #883B45",
"Z  c #903F45",
"A  c #8B464C",
"S  c #98434A",
"D  c #8C5650",
"F  c #AA4C52",
"G  c #B9555A",
"H  c #B44752",
"J  c #845D6D",
"K  c #845565",
"L  c #985A67",
"P  c #A35E61",
"I  c #84616B",
"U  c #9D6162",
"Y  c #84766D",
"T  c #876677",
"R  c #806779",
"E  c #846C7D",
"W  c #8C6A76",
"Q  c #986A75",
"!  c #847D71",
"~  c #87717C",
"^  c #9F767D",
"/  c #A66B76",
"(  c #A3777D",
")  c #B5737C",
"_  c #BA7F79",
"`  c #B06B69",
"'  c #C8585D",
"]  c #C76368",
"[  c #D17775",
"{  c #878073",
"}  c #8A8375",
"|  c #8E8879",
" . c #948D7D",
".. c #978479",
"X. c #97907F",
"o. c #98917F",
"O. c #A28B77",
"+. c #CB867D",
"@. c #D9847E",
"#. c #E3827F",
"$. c #6F6580",
"%. c #796E8B",
"&. c #846D81",
"*. c #886F82",
"=. c #8D7384",
"-. c #937282",
";. c #967987",
":. c #997E90",
">. c #A57B84",
",. c #A97E87",
"<. c #9C9583",
"1. c #9F9885",
"2. c #9C9689",
"3. c #9D8294",
"4. c #948088",
"5. c #AC8288",
"6. c #A5868B",
"7. c #B48383",
"8. c #BC8686",
"9. c #B6858A",
"0. c #BD8B8C",
"q. c #B78B89",
"w. c #A49D8A",
"e. c #A19A87",
"r. c #A18495",
"t. c #A88898",
"y. c #B48992",
"u. c #BA8B92",
"i. c #B78D9A",
"p. c #BE9093",
"a. c #B89298",
"s. c #B0928F",
"d. c #A6A08D",
"f. c #A9A38F",
"g. c #ACA692",
"h. c #AEA994",
"j. c #ABA298",
"k. c #B2AB96",
"l. c #B2AD99",
"z. c #BDAE9A",
"x. c #B6B29C",
"c. c #B8B49E",
"v. c #B996A5",
"b. c #B7A8A4",
"n. c #BDB9A2",
"m. c #BCB7A0",
"M. c #C48C8B",
"N. c #C98E8D",
"B. c #C88B84",
"V. c #D58F87",
"C. c #CC928E",
"Z. c #C09880",
"A. c #DC9084",
"S. c #D0948B",
"D. c #C18B90",
"F. c #C79899",
"G. c #D49690",
"H. c #D89E97",
"J. c #E09F95",
"K. c #EE8A84",
"L. c #DFA29D",
"P. c #E3A196",
"I. c #E5A49A",
"U. c #E9A599",
"Y. c #EDAA9D",
"T. c #F5AE9F",
"R. c #F8A79C",
"E. c #E4B29E",
"W. c #C397A1",
"Q. c #D2ADA0",
"!. c #C1BDA5",
"~. c #DEB3AA",
"^. c #E0B1AD",
"/. c #F8B6A6",
"(. c #F6AEA1",
"). c #C5C1A9",
"_. c #CAC6AE",
"`. c #CBC8AF",
"'. c #CECCB2",
"]. c #CAC3B4",
"[. c #D1CEB4",
"{. c #DDC7B0",
"}. c #D6D3B8",
"|. c #DBD9BD",
" X c #D6D4B9",
".X c #D1C1A9",
"XX c #FBC1AF",
"oX c #FEC6B2",
"OX c #F7CBB6",
"+X c #E7DBB8",
"@X c #F6D1BA",
"#X c #E8CBB9",
"$X c #FAE6B7",
"%X c #DFDDC1",
"&X c #ECCAC5",
"*X c #F8DCC7",
"=X c #ECD6C0",
"-X c #E5E3C6",
";X c #ECEBCD",
":X c #E8E7C9",
">X c #FFFFCB",
",X c #FAF5C7",
"<X c #F0EFD0",
"1X c #FEEED1",
"2X c #F4F3D3",
"3X c #FEF4D5",
"4X c #FCFBDB",
"5X c #FDF7D8",
/* pixels */
"                                                                                                ",
"                                                                                                ",
"                                                                                                ",
"                                                                                                ",
"                                                                                                ",
"                                                                                                ",
"                                                                                                ",
"                                                                                                ",
"                                                                                                ",
"                                                                                                ",
"                                            I ;.=.                                              ",
"                                        ( E.$X$XT.7.                                            ",
"                                    d 8.J.Y.(.L.C.N.&.                                          ",
"                                  z X.x.}._ P U M.,.d               &.&.&.&.&.                  ",
"                              ! <.m._.2X/.(.@.[ A K e           -.q.oXoXoXoXT.                  ",
"                            ! k.x.n.[.;X3X@X/.K.' A.G Z G G @.B...q.oXoXoX/.T.,.                ",
"                          c.).}.<X4X:X|.2XXX[ @X5X4X/.@X[.OX(.@.1.d.H.T.T.T.I.(                 ",
"        *.5.M.;.      q 0 g.h.k.m.!. X4X4X5X5X3X3X*X|.`.n.-X+X.Xx.<.Y R.T.(.N.N.h               ",
"        5.(.Y.>.    y m.'.4X|._.).). X).c.-X<XOXR.{.+X|._.h.w.1. .! y C.,.,.C.U.Q               ",
"        M.T.Y.;.} X.c.4X4X5X_.`.'.-X4X2X|.e.d.k.z.x.l.x.f.1.1.1.<.<.0 j W =.C.T.8.              ",
"        *.v l.l.!.d.:X<X].b.;.c j.<X4X4X Xg.x.f.1.<. .<.} ! <.x.k.w.y   *.r.i.T.L.d d d *.      ",
"        *.h.).c.p h ;.r.W.W.y.t.t.b.:X:X'.x.c.x.<.<.1.1.1.1.g.x.f.g.0   k y.y.U.P.h *.=.t.r.&.  ",
"        =.d.d ,.9.9.^ ;.*.y.t.M.:.4.'. X'.h.d.w.X.w.1.1.1.1.h.g.c.1.      W N.G.I.c y.I.U.L.,.  ",
"        =.2.6.= m S L :.=.c =.:.u.q.x._.'. X[.d.<.h.1.1.1.1.h.w.d.o.        ~ N.(.^ H.(.Y.L.c   ",
"        E f F.+.S * $ & :.&.p h :.j.c.4X5Xb.j.n.X.1.1.1.1.1.h.w.d.o.        c P.(.U.G.a.W d     ",
"        =.c O.o.>X*X^.i.,.,.v d E f.|.#X9.p.u.<.! z  .<.<.1.h.1.<. .        t B.S.7.( 9         ",
"        e p M D ~.6.j s / ) L &.4.h.Q.(./.oXM.e ! ! ! ! ! ! ! } <.}                             ",
"        4 I V $XZ -.B K Q ) r k z e.5.D.I.G.M.d ! ! ! 1. . . .! X.|                             ",
"        4 ^ D e.+Xb N ' ,.e r c z 1.R N.M.*.j w & C A S F O.} | h.}                             ",
"        # Q >X>X=X` P 7.L , 9 @ q , ( A.S.3.R e b n n M F ] ) g.w.*                             ",
"        @ I $X,X&X&XA M.d > O O @ < 8.A.A.t.=.          b % H % m                               ",
"        @ X 3.^ a.^.0.$ 6 + O O @ , 6.A.A.D.3.                                                  ",
"        5 < ; 8 p < 9 ; X > O O O 2 R A.A.A.r.                                                  ",
"        ; + O l 5 5 + X X + O + - 2 R A.A.A.r.                                                  ",
"        @ 8 , 1 5 5 > o O O O + - 3 s A.A.A.9.                                                  ",
"          i 8 1 x 5 + + o O 7 O O 3 e N.V.A.+.p                                                 ",
"            8 1 x 5 1 7 . o - - > T s N.V.A.9 K *.d                                             ",
"            6 1 $.- i 2 @ . o + . v T u.N.V.+.E s d a                                           ",
"              1 %.u 8 1 @ . . . o h t.u.N.F.W.3.v.D./                                           ",
"                5 X . . . . < 8 > @ -.:.M.u.v.v./ J 9                                           ",
"                                          J T                                                   ",
"                                                                                                ",
"                                                                                                ",
"                                                                                                ",
"                                                                                                ",
"                                                                                                ",
"                                                                                                ",
"                                                                                                "
};
